<svg xmlns:dc="http://purl.org/dc/elements/1.1/" xmlns:cc="http://creativecommons.org/ns#" xmlns:rdf="http://www.w3.org/1999/02/22-rdf-syntax-ns#" xmlns:svg="http://www.w3.org/2000/svg" xmlns="http://www.w3.org/2000/svg" xmlns:sodipodi="http://sodipodi.sourceforge.net/DTD/sodipodi-0.dtd" xmlns:inkscape="http://www.inkscape.org/namespaces/inkscape" version="1.1" x="0px" y="0px" viewBox="0 0 90.000038 71.80513"><g transform="translate(1292.6826,202.33214)"><path style="" d="m -1292.6058,-146.62924 c -0.3098,-0.9572 12.0797,-4.9687 14.2426,-11.18606 2.4019,-6.90453 5.5685,-15.34139 6.0487,-16.14894 6.9287,-14.81923 14.4809,-23.82675 29.0468,-23.18243 6.8651,0.29145 12.587,2.86939 17.8875,6.2901 3.3729,1.53831 4.0645,0.56843 5.4406,0.10996 1.8087,-2.4291 3.2317,-4.57332 2.8152,-5.02411 l -1.7691,-1.61242 c -2.2116,-4.1095 -2.0643,-4.48497 -1.7691,-4.48112 1.9657,-0.52279 3.9313,1.72473 5.897,3.73476 0.4215,-2.22587 3.2682,-4.22909 4.3244,-4.12788 0.4954,0.62259 -0.7862,3.27609 -1.1794,4.91414 0.8458,0.87404 1.1343,0.91225 1.5441,1.13228 l 1.491,0.59692 c 1.601,2.00358 3.3911,3.43964 5.2207,4.75747 1.0721,0.85179 0.6013,1.70357 -0.3932,2.55536 -0.9066,0.94934 -2.1731,0.81874 -3.5381,0.39313 -2.5045,-0.58352 -5.275,0.79985 -5.7102,2.25854 -3.5861,5.5699 -5.7477,7.10272 -9.622,8.94571 -2.313,3.11927 -2.6525,4.65962 -2.6855,5.95492 -0.6061,1.3595 -0.805,2.92265 -1.8354,4.06994 -0.8453,0.87153 -1.6822,1.76788 -2.752,1.96567 -1.3524,1.36066 -3.4302,-7.1e-4 -3.5382,-0.5897 0,-0.13346 1.8446,-0.58875 1.376,-1.1794 -0.052,-0.17244 2.3951,-0.58245 3.145,-1.76909 0.7064,-3.66221 -0.015,-5.32485 -0.3931,-7.4695 -3.2195,0.87853 -6.0846,0.69392 -8.8455,0.19656 -0.7549,0.0588 -1.2053,0.72668 -1.4994,1.70708 -1.9136,3.62047 -4.6731,6.16358 -9.8051,10.93349 -2.9348,3.21642 -5.4805,7.21126 -7.9589,11.34047 0.2359,3.58626 2.3408,10.32153 1.5326,11.7706 -0.2254,0.79233 -1.6873,8.72375 -2.3189,9.16853 -0.6794,0.14894 -0.3239,-2.44646 -1.5726,-3.05163 -0.6679,1.55195 -0.8484,3.32645 -1.7223,2.96502 -0.1861,-0.33777 0.4292,-2.26152 -0.2433,-2.37532 0.2633,-1.30749 0.4967,-2.61516 -0.1965,-3.93132 2.1242,-8.56274 -0.6135,-10.87424 -1.376,-15.72527 -0.113,-1.67879 -0.28,-3.40379 1.1794,-3.73476 3.3094,-4.35663 7.5288,-14.80044 7.0764,-15.92183 -0.8369,-1.44491 -1.6884,-2.75807 -2.752,-2.16223 -2.5845,-0.23293 -3.4198,-2.21504 -3.9313,-4.52101 -0.4524,-2.79446 -7.6248,13.73114 -11.7939,21.62225 -3.1041,6.32536 -18.4628,12.48247 -19.067,10.81112 z" fill="#000000" fill-opacity="1" stroke="#000000" stroke-width="0.14217202px" stroke-linecap="butt" stroke-linejoin="miter" stroke-opacity="1"></path></g></svg>